<svg width="274" height="274" viewBox="0 0 274 274" fill="none" xmlns="http://www.w3.org/2000/svg">
<g opacity="0.4" clip-path="url(#clip0_5_1068)">
<path d="M0 0V139.392H7.39365V7.39365H266.606V266.606H137.109V274H274V0H0Z" fill="#DDE3EB"/>
<path d="M181.507 159.395C179.326 166.13 176.4 171.606 172.356 176.26C168.259 180.86 163.311 184.255 157.618 186.773C151.872 189.292 145.328 190.606 138.199 190.606H111.596V83.4485H138.199C145.328 83.4485 151.872 84.7079 157.618 87.2266C163.311 89.8002 168.206 93.1403 172.356 97.7946C176.4 102.394 179.326 108.089 181.507 114.605C183.742 121.34 184.806 128.513 184.806 136.891C184.806 145.323 183.795 152.715 181.507 159.395ZM207.471 106.172C203.8 96.9185 198.905 88.9241 192.361 82.1891C185.87 75.4541 177.889 70.3617 168.632 66.6383C159.427 62.8054 149.425 60.8889 138.199 60.8889H84.0359H68.5V73.3733C68.5 76.9325 70.0961 79.0132 73.6077 79.8893C73.7673 79.8893 74.1929 80.0536 74.8314 80.0536C75.4699 80.0536 76.4275 80.4916 77.9173 80.7107C79.3538 80.9297 81.5884 81.3677 84.0359 81.8058V192.249C81.5352 192.687 79.3538 193.07 77.9173 193.289C76.4807 193.508 75.4699 193.946 74.8314 193.946C74.1929 193.946 73.7673 194.111 73.6077 194.111C70.1494 194.987 68.5 197.068 68.5 200.681V213.111H84.0359H138.252C149.478 213.111 159.481 211.195 168.685 207.416C177.889 203.584 185.923 198.601 192.414 191.866C198.959 185.131 203.907 176.917 207.525 167.663C211.249 158.41 213.111 148.116 213.111 136.945C213.058 125.775 211.196 115.426 207.471 106.172Z" fill="#DDE3EB"/>
</g>
<g opacity="0.1" clip-path="url(#clip1_5_1068)">
<path d="M0 0V139.392H7.39365V7.39365H266.606V266.606H137.109V274H274V0H0Z" fill="#DDE3EB"/>
<path d="M181.507 159.395C179.326 166.13 176.4 171.606 172.356 176.26C168.259 180.86 163.311 184.255 157.618 186.773C151.872 189.292 145.328 190.606 138.199 190.606H111.596V83.4485H138.199C145.328 83.4485 151.872 84.7079 157.618 87.2266C163.311 89.8002 168.206 93.1403 172.356 97.7946C176.4 102.394 179.326 108.089 181.507 114.605C183.742 121.34 184.806 128.513 184.806 136.891C184.806 145.323 183.795 152.715 181.507 159.395ZM207.471 106.172C203.8 96.9185 198.905 88.9241 192.361 82.1891C185.87 75.4541 177.889 70.3617 168.632 66.6383C159.427 62.8054 149.425 60.8889 138.199 60.8889H84.0359H68.5V73.3733C68.5 76.9325 70.0961 79.0132 73.6077 79.8893C73.7673 79.8893 74.1929 80.0536 74.8314 80.0536C75.4699 80.0536 76.4275 80.4916 77.9173 80.7107C79.3538 80.9297 81.5884 81.3677 84.0359 81.8058V192.249C81.5352 192.687 79.3538 193.07 77.9173 193.289C76.4807 193.508 75.4699 193.946 74.8314 193.946C74.1929 193.946 73.7673 194.111 73.6077 194.111C70.1494 194.987 68.5 197.068 68.5 200.681V213.111H84.0359H138.252C149.478 213.111 159.481 211.195 168.685 207.416C177.889 203.584 185.923 198.601 192.414 191.866C198.959 185.131 203.907 176.917 207.525 167.663C211.249 158.41 213.111 148.116 213.111 136.945C213.058 125.775 211.196 115.426 207.471 106.172Z" fill="#DDE3EB"/>
</g>
<defs>
<clipPath id="clip0_5_1068">
<rect width="274" height="137" fill="white"/>
</clipPath>
<clipPath id="clip1_5_1068">
<rect width="274" height="137" fill="white" transform="translate(0 137)"/>
</clipPath>
</defs>
</svg>
