<svg width="120" height="120" viewBox="0 0 120 120" fill="none" xmlns="http://www.w3.org/2000/svg">
<path d="M40.45 58.1501H17C17.4 34.8001 22 30.9501 36.35 22.4501C38 21.4501 38.55 19.3501 37.55 17.6501C36.6 16.0001 34.45 15.4501 32.8 16.4501C15.9 26.4501 10 32.5501 10 61.6001V88.5501C10 97.1001 16.95 104 25.45 104H40.45C49.25 104 55.9 97.3501 55.9 88.5501V73.5501C55.9 64.8001 49.25 58.1501 40.45 58.1501Z" fill="#2a2a2a"/>
<path d="M94.5498 58.1501H71.0998C71.4998 34.8001 76.0998 30.9501 90.4498 22.4501C92.0998 21.4501 92.6498 19.3501 91.6498 17.6501C90.6498 16.0001 88.5498 15.4501 86.8498 16.4501C69.9498 26.4501 64.0498 32.5501 64.0498 61.6501V88.6001C64.0498 97.1501 70.9998 104.05 79.4998 104.05H94.4998C103.3 104.05 109.95 97.4001 109.95 88.6001V73.6001C110 64.8001 103.35 58.1501 94.5498 58.1501Z" fill="#2a2a2a"/>
</svg>
